<svg width="304" height="422" viewBox="0 0 304 422" fill="none" xmlns="http://www.w3.org/2000/svg">
    <path d="M216.509 97.0817C205.194 92.3428 179.48 90.0291 167.135 118.686L216.509 97.0817Z" stroke="#341BAD"/>
    <path d="M92.2603 150.204L226.105 93.6652L250.06 134.237L134.394 221.562L92.2603 150.204Z" stroke="#341BAD"/>
    <path d="M134.855 221.36C134.715 221.442 134.419 221.479 133.841 221.216C133.283 220.961 132.581 220.477 131.746 219.757C130.082 218.322 127.984 216.03 125.591 213.042C120.811 207.073 114.907 198.394 109.018 188.421C103.13 178.448 98.3813 169.086 95.4634 162.017C94.003 158.479 93.0095 155.535 92.5564 153.385C92.3291 152.306 92.2446 151.457 92.2912 150.846C92.3395 150.212 92.5152 149.971 92.6543 149.889C92.7933 149.807 93.0895 149.769 93.6676 150.033C94.2256 150.288 94.9279 150.771 95.7627 151.492C97.4271 152.927 99.525 155.219 101.918 158.206C106.698 164.176 112.602 172.855 118.49 182.828C124.379 192.801 129.127 202.162 132.045 209.231C133.506 212.769 134.499 215.713 134.952 217.864C135.18 218.943 135.264 219.791 135.218 220.403C135.169 221.037 134.994 221.278 134.855 221.36Z" stroke="#3924AC"/>
    <path d="M63.289 165.06C72.6218 162.253 82.5895 162.323 91.8894 165.269L96.159 166.622L122.647 211.483L120.826 218.094C118.814 225.402 115.183 232.163 110.202 237.876L107.866 240.556L63.289 165.06Z" stroke="#341BAD"/>
    <path d="M275.375 111.177L247.648 136.052L223.337 94.8788L256.426 81.1252C264.722 77.6769 274.29 80.8664 278.858 88.6027C283.224 95.9963 281.766 105.443 275.375 111.177Z" stroke="#341BAD"/>
    <path d="M220.101 172.94C212.994 178.205 205.505 181.505 199.159 182.603C192.78 183.706 187.718 182.566 185.222 179.197C182.726 175.827 183.111 170.653 186.025 164.873C188.924 159.122 194.263 152.919 201.371 147.655C208.478 142.39 215.967 139.089 222.313 137.992C228.692 136.889 233.753 138.028 236.249 141.398C238.745 144.767 238.361 149.942 235.447 155.722C232.548 161.473 227.208 167.675 220.101 172.94Z" stroke="#341BAD"/>
    <path d="M171.254 127.629L114.275 163.252C112.061 161.754 106.13 157.865 100.117 154.287C92.6011 149.816 92.8394 145.715 97.1121 143.192C101.385 140.669 155.955 128.743 161.535 126.933C165.999 125.485 169.875 126.794 171.254 127.629Z" stroke="#341BAD"/>
    <path d="M136.878 209.685C137.134 208.534 164.15 193.165 177.627 185.625C180.457 195.698 155.6 214.769 142.818 223.045C140.731 219.071 136.622 210.836 136.878 209.685Z" stroke="#341BAD"/>
    <path d="M100.716 260.899L41.5876 160.758C48.3955 160.937 55.1255 162.274 61.4887 164.713L62.8003 165.215L106.914 239.927L106.681 242.897C106.181 249.296 104.132 255.474 100.716 260.899Z" stroke="#341BAD"/>
    <path d="M35.7094 118.146L82.6826 198.411C84.1317 196.598 85.6092 191.137 79.9267 183.803C86.47 178.815 94.126 166.687 72.4042 158.08" stroke="#341BAD"/>
    <path d="M77.9497 160.628C84.4088 155.496 93.7385 142.466 79.3841 131.401C75.9742 129.535 67.4284 126.812 60.5241 130.852" stroke="#341BAD"/>
    <path d="M58.8078 138.808C60.9622 135.23 62.901 126.796 53.421 121.684C49.306 121.582 41.4169 123.148 42.7801 130.229M74.7013 128.349C75.6878 121.785 73.4151 109.52 56.4323 112.97C53.8121 109.483 46.7885 104.015 39.6565 110.043C38.6144 111.232 36.366 114.517 35.7089 118.146" stroke="#341BAD"/>
    <path d="M124.403 269.05L95.5018 219.665C96.8091 219.494 99.9932 220.459 102.272 225.684C106.534 223.902 114.745 223.802 113.496 237.65" stroke="#341BAD"/>
    <path d="M113.636 234.004C117.95 232.311 127.06 231.637 128.991 242.483C129.059 244.819 128.227 250.059 124.357 252.324" stroke="#341BAD"/>
    <path d="M119.831 250.695C122.227 250.719 127.055 252.384 127.205 258.855C126.185 260.996 123.326 264.547 120.052 261.615M129.335 245.846C132.956 247.41 138.651 252.441 132.456 260.059C133.561 262.501 134.533 267.825 129.585 269.581C128.704 269.74 126.434 269.857 124.402 269.049" stroke="#341BAD"/>
    <path d="M38.9295 184.799L-12.3781 203.034" stroke="#341BAD"/>
    <path d="M46.0474 206.652L-2.85241 230.607" stroke="#341BAD"/>
    <path d="M66.1574 225.428L-33.5608 289.716" stroke="#341BAD"/>
    <path d="M71.0255 254L-15.5215 335.156" stroke="#341BAD"/>
    <path d="M81.6515 266L-25.3889 421.217" stroke="#341BAD"/>
    <circle cx="170" cy="252" r="6.5" stroke="#391DCB"/>
    <circle cx="58" cy="97" r="6.5" stroke="#391DCB"/>


</svg>
