<svg width="240" height="259" viewBox="0 0 240 259" fill="none" xmlns="http://www.w3.org/2000/svg">
    <path d="M81.3366 124.797L16.0723 32.8981L98.0625 110.245L81.3366 124.797Z" fill="#5233F5" stroke="#291A7A"/>
    <path d="M72.4862 58.6332C81.2614 68.7188 79.7562 84.4558 69.0417 93.778C58.3272 103.1 42.5334 102.415 33.7582 92.3291C24.9831 82.2434 26.4883 66.5065 37.2027 57.1842C47.9172 47.8619 63.7111 48.5475 72.4862 58.6332Z" fill="#5233F5" stroke="#291A7A"/>
    <path d="M72.7828 128.576C70.3721 124.622 71.1646 119.505 74.6588 116.465L92.7321 100.74C96.2826 97.6506 101.56 97.6266 105.138 100.683L140.869 131.204C145.282 134.974 145.313 141.785 140.935 145.595L111.671 171.057C107.232 174.919 100.385 173.858 97.3231 168.834L72.7828 128.576Z" fill="#5233F5" stroke="#291A7A"/>
    <path d="M118.671 179.965L109.977 160.732L132.882 140.803L150.22 152.516L118.671 179.965Z" fill="#5233F5" stroke="#291A7A"/>
    <path d="M150.662 152.794C150.735 152.878 150.802 153.038 150.777 153.353C150.751 153.67 150.635 154.087 150.408 154.605C149.955 155.639 149.111 156.966 147.925 158.503C145.558 161.569 141.893 165.385 137.49 169.216C133.087 173.047 128.8 176.149 125.436 178.069C123.75 179.031 122.319 179.684 121.233 179.989C120.689 180.142 120.259 180.2 119.942 180.182C119.626 180.164 119.476 180.074 119.404 179.991C119.331 179.907 119.263 179.747 119.289 179.431C119.314 179.114 119.431 178.697 119.658 178.179C120.111 177.146 120.955 175.818 122.141 174.282C124.508 171.215 128.173 167.399 132.576 163.568C136.979 159.737 141.265 156.635 144.629 154.715C146.315 153.753 147.746 153.101 148.833 152.795C149.377 152.642 149.806 152.584 150.124 152.603C150.44 152.621 150.589 152.71 150.662 152.794Z" fill="#5233F5" stroke="#291A7A"/>
    <path d="M188.73 371.099L130 191.932" stroke="#341BAD"/>
    <path d="M307.736 277.235L159 161.358" stroke="#341BAD"/>
    <path d="M241.727 356.852L148 193.252" stroke="#341BAD"/>
    <circle cx="23" cy="118" r="6.5" stroke="#391DCB"/>
    <circle cx="159" cy="131" r="8.5" stroke="#391DCB"/>
</svg>
