<svg width="922" height="582" viewBox="0 0 922 582" fill="none" xmlns="http://www.w3.org/2000/svg">
    <path opacity="0.5" fill-rule="evenodd" clip-rule="evenodd" d="M139.777 375.27C42.4862 449.84 -12.1794 511.474 2.65925 537.962C28.4565 584.011 254.556 506.392 507.666 364.596C760.777 222.799 945.051 70.5209 919.254 24.4721C904.204 -2.39203 820.984 12.8325 704 58.3341V59.4072C720.839 52.8523 736.979 46.9245 752.317 41.6591C797.983 25.9823 836.491 16.1934 865.161 13.1882C879.5 11.6852 891.317 11.8861 900.315 13.8613C909.318 15.8376 915.352 19.5541 918.381 24.9609C921.41 30.3677 921.428 37.455 918.412 46.1647C915.397 54.8694 909.397 65.0517 900.626 76.4949C883.091 99.3745 854.632 127.102 817.413 157.858C742.99 219.359 633.697 292.845 507.178 363.723C380.658 434.601 260.912 489.427 169.596 520.775C123.93 536.452 85.4215 546.241 56.7519 549.246C42.413 550.749 30.596 550.548 21.5983 548.573C12.5954 546.596 6.56063 542.88 3.53167 537.473C0.502713 532.066 0.485057 524.979 3.50146 516.269C6.51608 507.565 12.5162 497.382 21.2866 485.939C38.8222 463.06 67.2812 435.332 104.499 404.576C115.644 395.367 127.57 385.889 140.22 376.191L139.777 375.27Z" fill="black"/>
    <g opacity="0.6">
        <path d="M846.5 291C846.5 451.355 689.668 581.5 496 581.5C302.332 581.5 145.5 451.355 145.5 291C145.5 130.645 302.332 0.500122 496 0.500122C689.668 0.500122 846.5 130.645 846.5 291Z" stroke="#341BAD"/>
        <path d="M757.233 291C757.233 451.489 640.033 581.5 495.567 581.5C351.1 581.5 233.9 451.489 233.9 291C233.9 130.511 351.1 0.500122 495.567 0.500122C640.033 0.500122 757.233 130.511 757.233 291Z" stroke="#341BAD"/>
        <path d="M625.5 291C625.5 371.304 611.006 443.982 587.594 496.565C575.888 522.857 561.961 544.103 546.522 558.769C531.086 573.433 514.16 581.5 496.433 581.5C478.706 581.5 461.781 573.433 446.345 558.769C430.906 544.103 416.979 522.857 405.273 496.565C381.86 443.982 367.367 371.304 367.367 291C367.367 210.696 381.86 138.018 405.273 85.4354C416.979 59.1433 430.906 37.8972 446.345 23.2308C461.781 8.56695 478.706 0.500122 496.433 0.500122C514.16 0.500122 531.086 8.56695 546.522 23.2308C561.961 37.8972 575.888 59.1433 587.594 85.4354C611.006 138.018 625.5 210.696 625.5 291Z" stroke="#3319B6"/>
        <rect x="145" y="291" width="702" height="1.78528" fill="#331BA5"/>
        <rect opacity="0.8" x="495.133" y="582" width="582" height="0.866667" transform="rotate(-90 495.133 582)" fill="#0F0056"/>
    </g>
    <path d="M631.3 27L633.332 34.5886C634.144 37.6234 636.336 40.1 639.249 41.2757L646 44L639.249 46.7243C636.336 47.9 634.144 50.3766 633.332 53.4114L631.3 61L629.297 53.5175C628.468 50.4231 626.207 47.9129 623.216 46.7663L616 44L623.216 41.2337C626.207 40.0871 628.468 37.5769 629.297 34.4825L631.3 27Z" fill="black"/>
    <path d="M75.3 414L77.3317 421.589C78.1442 424.623 80.3357 427.1 83.2492 428.276L90 431L83.2492 433.724C80.3358 434.9 78.1442 437.377 77.3317 440.411L75.3 448L73.2967 440.517C72.4682 437.423 70.2075 434.913 67.2163 433.766L60 431L67.2163 428.234C70.2075 427.087 72.4682 424.577 73.2967 421.482L75.3 414Z" fill="#4828E9"/>
    <path d="M807.3 7L809.332 14.5886C810.144 17.6234 812.336 20.1 815.249 21.2757L822 24L815.249 26.7243C812.336 27.9 810.144 30.3766 809.332 33.4114L807.3 41L805.297 33.5175C804.468 30.4231 802.207 27.9129 799.216 26.7663L792 24L799.216 21.2337C802.207 20.0871 804.468 17.5769 805.297 14.4825L807.3 7Z" fill="#3924AC"/>
    <path opacity="0.8" d="M199.3 495L201.332 502.589C202.144 505.623 204.336 508.1 207.249 509.276L214 512L207.249 514.724C204.336 515.9 202.144 518.377 201.332 521.411L199.3 529L197.297 521.517C196.468 518.423 194.207 515.913 191.216 514.766L184 512L191.216 509.234C194.207 508.087 196.468 505.577 197.297 502.482L199.3 495Z" fill="black"/>
    <path d="M603.95 420L607.405 430.879C608.366 433.906 610.708 436.297 613.715 437.32L626 441.5L613.715 445.68C610.708 446.703 608.366 449.094 607.405 452.121L603.95 463L600.525 452.213C599.547 449.134 597.143 446.717 594.069 445.724L581 441.5L594.069 437.276C597.143 436.283 599.547 433.866 600.525 430.787L603.95 420Z" fill="black"/>
</svg>
